<svg width="44" height="44" viewBox="0 0 44 44" fill="none" xmlns="http://www.w3.org/2000/svg">
<rect width="44" height="44" fill="#EE8208"/>
<path d="M26.1989 22.8772C27.0536 22.3429 28.1816 22.5981 28.719 23.4475C29.2567 24.295 28.9995 25.4155 28.1457 25.9496C27.0184 26.6533 25.7934 27.1522 24.5236 27.4393L28.0106 30.9024C28.7256 31.6103 28.7256 32.7595 28.0106 33.4685C27.2974 34.1772 26.1403 34.1772 25.4278 33.4685L21.9997 30.0654L18.5738 33.4685C18.2169 33.8224 17.7493 33.9996 17.2811 33.9996C16.8138 33.9996 16.3469 33.8224 15.9897 33.4685C15.2757 32.7595 15.2757 31.611 15.9889 30.9024L19.4755 27.4393C18.2063 27.1522 16.9813 26.6525 15.8542 25.9496C15 25.4155 14.7434 24.2958 15.2813 23.4475C15.8185 22.5981 16.9458 22.3429 17.801 22.8772C20.3544 24.4715 23.6439 24.4722 26.1989 22.8772ZM22.0004 10C25.4404 10 28.2379 12.7784 28.2379 16.1947C28.2379 19.6095 25.4404 22.387 22.0004 22.387C18.5603 22.387 15.7626 19.6095 15.7626 16.1947C15.7626 12.7784 18.5603 10 22.0004 10ZM22.0004 13.6301C20.5771 13.6301 19.4178 14.7805 19.4178 16.1947C19.4178 17.6076 20.5771 18.7584 22.0004 18.7584C23.4242 18.7584 24.583 17.6076 24.583 16.1947C24.583 14.7805 23.4242 13.6301 22.0004 13.6301Z" fill="white"/>
</svg>
